<svg width="100" height="100" viewBox="0 0 100 100" fill="none" xmlns="http://www.w3.org/2000/svg">
<path d="M50 0C22.3858 0 0 22.3858 0 50C0 77.6142 22.3858 100 50 100C77.6142 100 100 77.6142 100 50C100 22.3858 77.6142 0 50 0ZM50 8.33333C73.0521 8.33333 91.6667 26.9479 91.6667 50C91.6667 73.0521 73.0521 91.6667 50 91.6667C26.9479 91.6667 8.33333 73.0521 8.33333 50C8.33333 26.9479 26.9479 8.33333 50 8.33333Z" fill="#F4F4F5"/>
<path d="M50 16.6667C31.5905 16.6667 16.6667 31.5905 16.6667 50C16.6667 68.4095 31.5905 83.3333 50 83.3333C68.4095 83.3333 83.3333 68.4095 83.3333 50C83.3333 31.5905 68.4095 16.6667 50 16.6667Z" fill="url(#paint0_linear_dark)"/>
<defs>
<linearGradient id="paint0_linear_dark" x1="50" y1="16.6667" x2="50" y2="83.3333" gradientUnits="userSpaceOnUse">
<stop stop-color="#FFC72C"/>
<stop offset="1" stop-color="#FF8C00"/>
</linearGradient>
</defs>
</svg>
